<?xml version="1.0" standalone="no"?>
<!DOCTYPE svg PUBLIC "-//W3C//DTD SVG 20010904//EN"
 "http://www.w3.org/TR/2001/REC-SVG-20010904/DTD/svg10.dtd">
<svg version="1.0" xmlns="http://www.w3.org/2000/svg"
 width="460.000000pt" height="460.000000pt" viewBox="0 0 460.000000 460.000000"
 preserveAspectRatio="xMidYMid meet">
<metadata>
Created by potrace 1.14, written by Peter Selinger 2001-2017
</metadata>
<g transform="translate(0.000000,460.000000) scale(0.100000,-0.100000)"
fill="#000000" stroke="none">
<path d="M0 4460 l0 -140 58 0 c70 0 98 19 110 75 9 41 3 61 -28 94 -8 9 -32
38 -54 64 -26 32 -46 47 -62 47 l-24 0 0 -140z"/>
<path d="M1930 4531 c0 -39 -5 -73 -10 -76 -8 -5 -7 -11 0 -21 7 -7 14 -40 17
-73 4 -46 2 -66 -11 -85 -9 -14 -16 -34 -16 -45 0 -11 -4 -22 -9 -25 -4 -3 -5
-25 -1 -48 5 -24 8 -45 8 -48 1 -6 36 -18 43 -14 3 2 21 6 40 9 34 6 177 50
214 67 35 15 84 17 127 5 36 -11 43 -17 52 -52 15 -52 45 -66 145 -69 43 -2
82 -5 87 -8 5 -3 35 -11 66 -18 32 -6 60 -16 63 -21 4 -5 28 -19 56 -30 27
-12 61 -35 75 -52 14 -17 43 -44 64 -61 21 -17 52 -49 68 -71 16 -22 45 -58
65 -79 20 -21 37 -42 37 -45 0 -4 15 -27 33 -51 28 -39 32 -52 32 -109 0 -62
1 -64 36 -87 20 -12 41 -19 48 -15 19 12 109 -9 116 -27 3 -8 -3 -25 -14 -36
-11 -12 -24 -33 -30 -49 -6 -15 -16 -26 -23 -25 -9 2 -14 -16 -16 -60 -3 -66
9 -97 35 -88 16 7 18 -71 2 -106 -7 -17 -7 -32 2 -53 6 -17 11 -46 10 -66 -1
-21 2 -40 8 -43 7 -5 7 -13 -2 -27 -10 -17 -9 -22 5 -33 13 -9 18 -34 22 -103
6 -101 -2 -121 -48 -109 -20 5 -30 0 -47 -23 -12 -16 -30 -32 -40 -34 -13 -4
-19 -14 -19 -34 0 -17 -7 -52 -15 -79 -8 -28 -11 -52 -6 -57 12 -12 31 0 31
20 0 9 6 13 15 9 10 -3 18 1 22 12 10 25 21 -32 29 -149 6 -79 4 -102 -10
-129 -9 -18 -16 -40 -16 -49 0 -15 -41 -41 -66 -41 -7 0 -26 8 -43 18 -32 18
-42 42 -17 42 23 0 29 19 9 27 -10 4 -23 13 -29 21 -8 12 -13 10 -27 -12 -9
-14 -17 -30 -17 -37 0 -6 -7 -8 -16 -5 -8 3 -24 2 -34 -4 -15 -8 -17 -20 -15
-70 2 -33 7 -64 10 -71 4 -6 -3 -21 -15 -34 -15 -16 -20 -33 -18 -56 3 -33 5
-34 66 -47 35 -8 62 -15 60 -17 -2 -2 -21 -4 -43 -6 -91 -6 -105 -29 -105
-179 0 -74 1 -76 51 -150 132 -195 231 -319 268 -334 20 -9 47 -22 61 -30 14
-8 55 -21 92 -30 58 -13 201 -76 308 -135 19 -11 55 -28 80 -39 125 -55 266
-119 366 -168 61 -29 146 -67 190 -84 43 -17 95 -38 114 -47 19 -8 50 -22 68
-29 l32 -14 0 2030 0 2030 -1335 0 -1335 0 0 -69z"/>
<path d="M486 3979 c-15 -12 -31 -32 -36 -45 -12 -29 -86 -64 -139 -64 -40 0
-40 0 -43 42 l-3 43 -52 10 c-28 5 -55 13 -59 17 -3 4 -18 1 -33 -6 -46 -23
-78 -27 -91 -11 -7 8 -16 15 -21 15 -5 0 -9 -813 -9 -1892 l0 -1893 25 32 c14
17 56 52 93 77 37 24 78 54 92 66 14 12 48 33 75 47 55 28 155 86 197 115 15
10 67 39 115 64 48 26 124 72 168 104 44 31 129 83 189 114 59 31 149 79 200
105 50 27 107 54 127 60 19 6 66 32 104 56 37 25 74 45 80 45 7 0 26 21 43 48
47 74 152 268 152 279 0 6 7 17 16 24 13 11 15 31 12 119 -4 96 -7 111 -38
170 -63 121 -120 287 -120 351 0 15 -8 19 -39 19 -32 0 -44 6 -75 40 -21 24
-36 50 -36 65 0 14 -9 65 -19 113 -11 48 -22 116 -25 152 -6 58 -5 62 7 42 12
-20 15 -21 26 -8 13 16 8 46 -13 81 -23 37 -46 123 -46 170 0 25 -4 53 -9 63
-5 9 -19 44 -31 76 -21 54 -22 63 -10 109 7 27 12 82 11 121 -2 82 17 149 43
154 14 3 16 -1 11 -17 -3 -12 -4 -21 0 -21 10 0 37 71 40 107 3 28 1 32 -11
22 -11 -9 -14 -7 -15 12 l0 24 -11 -22 c-6 -13 -15 -23 -20 -23 -13 0 -5 60 9
72 7 6 13 27 13 47 0 30 -9 46 -55 96 -46 49 -55 65 -55 96 0 20 -6 42 -14 48
-26 22 -82 24 -129 6 -38 -14 -52 -15 -84 -5 -80 24 -86 30 -79 77 7 50 -9
100 -34 108 -9 3 -29 1 -44 -4 -17 -7 -35 -7 -52 -1 -14 6 -35 10 -48 10 -13
0 -31 12 -44 30 -13 17 -30 30 -40 30 -9 0 -34 9 -55 20 -47 26 -78 25 -111
-1z"/>
</g>
</svg>
